<svg width="25" height="27" viewBox="0 0 25 27" fill="none" xmlns="http://www.w3.org/2000/svg">
<path d="M8.5108 6V4.75C8.5108 3.75544 8.90589 2.80161 9.60915 2.09835C10.3124 1.39509 11.2662 1 12.2608 1C13.2554 1 14.2092 1.39509 14.9125 2.09835C15.6157 2.80161 16.0108 3.75544 16.0108 4.75V6M13.5108 18.5V11" stroke="#FF9900" stroke-width="2" stroke-linecap="round"/>
<path d="M11.0108 21C12.3915 21 13.5108 19.8807 13.5108 18.5C13.5108 17.1193 12.3915 16 11.0108 16C9.63009 16 8.5108 17.1193 8.5108 18.5C8.5108 19.8807 9.63009 21 11.0108 21Z" stroke="#FF9900" stroke-width="2"/>
<path d="M16.0108 13.5C15.3478 13.5 14.7119 13.2366 14.243 12.7678C13.7742 12.2989 13.5108 11.663 13.5108 11" stroke="#FF9900" stroke-width="2" stroke-linecap="round"/>
<path d="M22.5408 14.1575C21.8083 10.2562 21.4433 8.305 20.0533 7.1525C18.667 6 16.682 6 12.7108 6H11.8108C7.84076 6 5.85576 6 4.46701 7.1525C3.07951 8.305 2.71326 10.2562 1.98076 14.1575C0.952015 19.6437 0.438265 22.3862 1.93826 24.1937C3.43826 26 6.22826 26 11.8095 26H12.712C18.2933 26 21.0845 26 22.5833 24.1937C23.4533 23.1437 23.6458 21.7812 23.4533 19.75" stroke="#FF9900" stroke-width="2" stroke-linecap="round"/>
</svg>
